Underworld Awakening 2012 TS XviD Feel-Free

Genre:Action | Fantasy | Horror
Language:English
IMDb:http://www.imdb.com/title/tt1496025/
Source:SIC Thanks!
Encoder:Tony

Format : AVI
Format/Info : Audio Video Interleave
File size : 743 MiB
Duration : 1h 15mn
Overall bit rate : 1 380 Kbps

Video
ID : 0
Format : MPEG-4 Visual
Format profile : Advanced Simple@L5
Format settings, BVOP : 2
Format settings, QPel : No
Format settings, GMC : No warppoints
Format settings, Matrix : Default (H.263)
Muxing mode : Packed bitstream
Codec ID : XVID
Codec ID/Hint : XviD
Duration : 1h 15mn
Bit rate : 1 243 Kbps
Width : 720 pixels
Height : 304 pixels
Display aspect ratio : 2.35:1
Frame rate : 25.000 fps
Color space : YUV
Chroma subsampling : 4:2:0
Bit depth : 8 bits
Scan type : Progressive
Compression mode : Lossy
Bits/(Pixel*Frame) : 0.227
Stream size : 669 MiB (90%)
Writing library : XviD 64

Audio
ID : 1
Format : MPEG Audio
Format version : Version 1
Format profile : Layer 3
Mode : Joint stereo
Mode extension : MS Stereo
Codec ID : 55
Codec ID/Hint : MP3
Duration : 1h 15mn
Bit rate mode : Constant
Bit rate : 128 Kbps
Channel(s) : 2 channels
Sampling rate : 44.1 KHz
Compression mode : Lossy
Stream size : 68.9 MiB (9%)
Alignment : Split accross interleaves
Interleave, duration : 40 ms (1.00 video frame)
Interleave, preload duration : 500 ms
Writing library : LAME3.98r
Encoding settings : -m j -V 4 -q 2 -lowpass 17 -b 128


Plot:
When human forces discover the existence of the Vampire and Lycan clans, a war 
to eradicate both species commences. The vampire warrioress Selene leads the 
battle against humankind.


Poster:

 
http://i.imgur.com/ZA9xe.jpg


Screens:

 
http://i.imgur.com/XoXFb.png

 
http://i.imgur.com/MJkea.png

 
http://i.imgur.com/Ut1kb.png


ENJOY!